
<svg width="1440" height="900" viewBox="0 0 1440 900" fill="none" xmlns="http://www.w3.org/2000/svg">
  <g opacity="0.2">
    <circle cx="200" cy="200" r="100" fill="white" fill-opacity="0.1"/>
    <circle cx="600" cy="300" r="150" fill="white" fill-opacity="0.05"/>
    <circle cx="1000" cy="200" r="120" fill="white" fill-opacity="0.07"/>
    <circle cx="300" cy="600" r="180" fill="white" fill-opacity="0.03"/>
    <circle cx="900" cy="700" r="200" fill="white" fill-opacity="0.06"/>
    <circle cx="1300" cy="500" r="130" fill="white" fill-opacity="0.04"/>
    <circle cx="500" cy="800" r="90" fill="white" fill-opacity="0.08"/>
    <circle cx="1200" cy="100" r="70" fill="white" fill-opacity="0.05"/>
  </g>
  <g opacity="0.1">
    <line x1="0" y1="100" x2="1440" y2="100" stroke="white" stroke-width="1"/>
    <line x1="0" y1="300" x2="1440" y2="300" stroke="white" stroke-width="1"/>
    <line x1="0" y1="500" x2="1440" y2="500" stroke="white" stroke-width="1"/>
    <line x1="0" y1="700" x2="1440" y2="700" stroke="white" stroke-width="1"/>
    <line x1="200" y1="0" x2="200" y2="900" stroke="white" stroke-width="1"/>
    <line x1="400" y1="0" x2="400" y2="900" stroke="white" stroke-width="1"/>
    <line x1="600" y1="0" x2="600" y2="900" stroke="white" stroke-width="1"/>
    <line x1="800" y1="0" x2="800" y2="900" stroke="white" stroke-width="1"/>
    <line x1="1000" y1="0" x2="1000" y2="900" stroke="white" stroke-width="1"/>
    <line x1="1200" y1="0" x2="1200" y2="900" stroke="white" stroke-width="1"/>
  </g>
</svg>
